<svg xmlns="http://www.w3.org/2000/svg" xmlns:xlink="http://www.w3.org/1999/xlink" version="1.1" id="Layer_1" x="0px" y="0px" viewBox="0 0 1389.4 417.7" style="enable-background:new 0 0 1389.4 417.7;" xml:space="preserve">
<style type="text/css">
	.st0{fill:#F95000;}
	.st1{fill:url(#SVGID_1_);}
	.st2{fill:url(#SVGID_2_);}
	.st3{fill:url(#SVGID_3_);}
	.st4{fill:#FFFFFF;}
	.st5{fill:#003391;}
	.st6{fill:url(#SVGID_4_);}
	.st7{fill:url(#SVGID_5_);}
	.st8{fill:url(#SVGID_6_);}
</style>
<g>
	<g>
		<path class="st5" d="M641.2,221H492.7v0.7c2.5,14.3,8.9,25.6,19,34c10.1,8.4,22.9,12.6,38.3,12.6c22.1,0,38-7.3,47.7-21.8H634    c-6.7,16.1-17.4,28.8-32.3,38.2c-14.9,9.3-32.1,14-51.6,14c-26.9,0-49-8.5-66.2-25.4c-17.2-16.9-25.7-38.4-25.7-64.4    c0-26,8.6-47.5,25.7-64.4c17.2-16.9,39.2-25.4,66.2-25.4c26.7,0,48.6,8.5,65.6,25.4c17,16.9,25.6,38.4,25.6,64.4V221z     M586.6,160.7c-10.1-7.5-22.3-11.2-36.6-11.2c-14.3,0-26.4,3.7-36.4,11.2c-10,7.5-16.6,17.6-19.9,30.2v0.7h113v-0.7    C603.4,178.3,596.8,168.2,586.6,160.7z"/>
		<path class="st5" d="M764.1,298.7h-41.8l-74.9-179.6h37.8l58.4,147.5h0.3l58.4-147.5H839L764.1,298.7z"/>
		<path class="st5" d="M1031.6,210.3v88.4h-30.1v-40.1h-0.7c-5.3,12.2-13.8,21.9-25.4,29.2c-11.6,7.3-25.2,10.9-40.6,10.9    c-23.5,0-43.8-8.1-60.8-24.2c-17-16.1-25.6-38-25.6-65.6c0-26,8.6-47.5,25.7-64.4c17.2-16.9,39.2-25.4,66.2-25.4    c26.9,0,48.9,8.4,65.8,25.2C1023.2,161.1,1031.6,183.1,1031.6,210.3z M898,251.7c10.8,11.1,25,16.6,42.5,16.6    c17.5,0,31.7-5.5,42.5-16.6c10.8-11.1,16.2-25.3,16.2-42.8c0-17.5-5.4-31.8-16.2-42.8c-10.8-11.1-25-16.6-42.5-16.6    c-17.5,0-31.7,5.5-42.5,16.6c-10.8,11.1-16.2,25.3-16.2,42.8C881.7,226.4,887.1,240.7,898,251.7z"/>
		<path class="st5" d="M1217,298.7h-33.7V197.4c0-15.4-3.8-27-11.5-35.1c-7.7-8-17.8-12-30.3-12c-12.8,0-22.9,4-30.5,11.9    c-7.6,7.9-11.3,19.7-11.3,35.3v101.3h-33.7V197.4c0-25.7,6.7-45.2,20-58.5c13.3-13.2,30.8-19.8,52.3-19.8    c28.3,0,48.8,11.3,61.3,34h0.7c12.5-22.7,32.9-34,61.3-34c21.5,0,38.9,6.6,52.3,19.8c13.3,13.2,20,32.7,20,58.5v101.3h-33.7V197.4    c0-15.6-3.8-27.3-11.3-35.3c-7.6-7.9-17.7-11.9-30.5-11.9c-12.5,0-22.6,4-30.1,12c-7.6,8-11.3,19.7-11.3,35.1V298.7z"/>
	</g>
</g>
</svg>