<svg xmlns="http://www.w3.org/2000/svg" xmlns:xlink="http://www.w3.org/1999/xlink" version="1.1" id="Layer_1" x="0px" y="0px" viewBox="0 0 417.7 417.7" style="enable-background:new 0 0 417.7 417.7;" xml:space="preserve">
<style type="text/css">
	.st0{fill:#F95000;}
	.st1{fill:url(#SVGID_1_);}
	.st2{fill:url(#SVGID_2_);}
	.st3{fill:url(#SVGID_3_);}
	.st4{fill:#FFFFFF;}
	.st5{fill:#003391;}
	.st6{fill:url(#SVGID_4_);}
	.st7{fill:url(#SVGID_5_);}
	.st8{fill:url(#SVGID_6_);}
</style>
<g>
	<g>
		<path class="st0" d="M137.5,366.3c38.4,0,69.6-30.5,69.6-68c0-16.4-6.1-32.3-17.1-44.7c-8.9-9.9-27.5-17.7-47.2-25.9    c-27.4-11.4-58.4-24.4-71.7-47.4c-4-7-7-16.2-8.2-25.8c-0.2-1.7-1.8-3-3.7-3c-2.1,0-3.8,1.6-3.8,3.7v68.6    c0,55.5,7.6,89.7,25.6,114.4C93.8,355.8,114.9,366.3,137.5,366.3z"/>
		<path class="st0" d="M225,365.2c-1.4,1.1-1.8,3-0.8,4.6l0,0c0.5,0.9,1.3,1.5,2.3,1.7c1,0.3,2,0.1,2.9-0.4l60.9-34.3    c49.2-27.7,75.8-51.3,88.8-78.8c9.3-19.6,8-42.7-3.3-61.8c-9.3-15.7-24.3-26.9-42.3-31.6c-6-1.6-12.1-2.3-18.1-2.3    c-12.1,0-24,3.1-34.7,9.1c-14.6,8.2-25.6,21.3-31.1,36.8c-4.4,12.4-1.9,32.1,0.6,52.9c3.5,28.8,7.6,61.5-6.3,84.3    C239.5,352.3,232.8,359.3,225,365.2z"/>
		<path class="st0" d="M105.7,80.1c-19.2,32.4-7.7,74.1,25.5,92.9c14.6,8.2,31.7,11,48.2,7.9c13.2-2.5,29.4-14.4,46.6-27    c23.8-17.4,50.8-37.1,77.9-36.8c8.3,0.1,17.9,2.2,27,5.9c1.6,0.7,3.6,0,4.5-1.6l0,0c0.5-0.8,0.6-1.8,0.4-2.8    c-0.3-0.9-0.9-1.7-1.8-2.2L273.2,82C229,57.1,196.9,46,168.4,46c-3.2,0-6.4,0.1-9.6,0.4C136.9,48.4,117,61,105.7,80.1z"/>
	</g>
</g>
</svg>